<svg width="18" height="25" viewBox="0 0 18 25" fill="none" xmlns="http://www.w3.org/2000/svg">
<path d="M11.7534 0C11.7534 0 11.3448 1.15853 11.6985 3.20729C11.8611 4.14834 12.6334 5.58736 13.2188 6.6219C15.0237 9.81903 13.981 12.7174 13.981 12.7174C13.981 12.7174 14.7249 11.506 15.6517 9.97147C16.5826 8.43286 17.9484 7.7723 17.9484 7.7723C17.9484 7.7723 17.5094 8.40644 17.3651 10.7702C17.2391 12.8597 18.2249 14.9938 17.9484 17.3373C17.5684 20.5446 14.2635 23.4917 11.3936 24.0201C9.31436 24.4023 7.30218 24.386 5.07252 23.1441C1.55832 21.1848 -0.159144 17.3657 0.0115865 13.9145C0.170122 10.752 2.38149 7.28247 2.2758 7.75401C1.53597 11.0548 4.38147 12.8414 4.38147 12.8414C4.38147 12.8414 3.43229 8.20116 5.73309 4.69509C8.03388 1.18902 11.7534 0 11.7534 0Z" fill="url(#paint0_linear)"/>
<path d="M8.68777 8.03038C8.68777 8.03038 8.9276 11.1096 7.35038 13.5872C6.59022 14.7824 4.96015 16.01 4.27113 17.5039C3.58414 18.9917 3.5374 20.8474 4.57601 22.5039C5.55161 24.0587 8.56988 24.2823 8.9276 24.2986C11.2325 24.392 15.2975 22.9368 13.9702 18.0771C13.5515 16.5445 12.4601 15.888 12.4601 15.888C12.4601 15.888 12.5272 16.6624 11.9215 17.6441C11.3158 18.6258 10.4235 18.8169 10.4235 18.8169C10.4235 18.8169 12.8727 16.7823 11.4764 12.3352C10.706 9.87996 8.68777 8.03038 8.68777 8.03038Z" fill="url(#paint1_linear)"/>
<path opacity="0.2" d="M10.7444 1.32926C10.7282 1.87397 10.7607 2.55079 10.8989 3.3455C11.0798 4.38615 11.8156 5.78857 12.5107 7.02231C14.0981 9.83326 13.2526 12.3414 13.216 12.443C13.0757 12.8353 13.2526 13.2702 13.6286 13.4511C13.8101 13.5378 14.0173 13.5542 14.2102 13.4972C14.4031 13.4401 14.5681 13.3137 14.6733 13.1422C14.6814 13.13 15.4273 11.9105 16.346 10.3922C16.4294 10.252 16.5188 10.1219 16.6103 9.99789C16.5879 10.2215 16.5696 10.4613 16.5533 10.7215C16.4883 11.7784 16.6794 12.8251 16.8643 13.8373C17.0676 14.947 17.2769 16.0954 17.1407 17.2417C16.8013 20.1035 13.7485 22.76 11.2465 23.2193C10.4944 23.3575 9.82982 23.4246 9.216 23.4246C7.87658 23.4246 6.68553 23.1096 5.47009 22.4307C3.94775 21.5811 2.70589 20.2946 1.88272 18.7112C1.12053 17.2438 0.744518 15.5548 0.825818 13.9531C0.882728 12.8048 1.24045 11.6056 1.63882 10.6056C2.30548 12.4735 3.85425 13.4694 3.94775 13.5284C4.07986 13.6117 4.23026 13.6523 4.38067 13.6523C4.50132 13.6526 4.62052 13.626 4.72959 13.5744C4.83866 13.5228 4.93486 13.4476 5.01117 13.3541C5.08749 13.2607 5.14201 13.1514 5.17077 13.0342C5.19953 12.917 5.2018 12.7949 5.17741 12.6767C5.16928 12.6341 4.31969 8.32921 6.41317 5.13817C7.71804 3.15038 9.53917 1.95324 10.7444 1.32926ZM11.7526 0C11.7526 0 8.03308 1.18495 5.73229 4.69305C3.43149 8.20116 4.38067 12.8414 4.38067 12.8414C4.38067 12.8414 1.53516 11.0568 2.27703 7.75401C2.28312 7.72555 2.28109 7.71132 2.27093 7.71132C2.11646 7.71132 0.161189 10.9471 0.0128158 13.9145C-0.159947 17.3637 1.55955 21.1848 5.07375 23.1441C6.51887 23.951 7.87455 24.2397 9.216 24.2397C9.9416 24.2397 10.6631 24.1543 11.3948 24.0201C14.2647 23.4917 17.5676 20.5446 17.9497 17.3373C18.2281 14.9938 17.2403 12.8597 17.3663 10.7702C17.5086 8.40644 17.9497 7.7723 17.9497 7.7723C17.9497 7.7723 16.5818 8.43286 15.6529 9.97147C14.7261 11.506 13.9822 12.7174 13.9822 12.7174C13.9822 12.7174 15.0249 9.81903 13.22 6.6219C12.6347 5.58532 11.8623 4.14834 11.6997 3.20729C11.344 1.15853 11.7526 0 11.7526 0Z" fill="#424242"/>
<path opacity="0.2" d="M9.40321 10.0934C9.89101 10.7661 10.4012 11.6259 10.702 12.5791C11.9012 16.4043 9.98044 18.1258 9.90524 18.1909C9.76501 18.3071 9.66793 18.4671 9.62959 18.6451C9.59125 18.8232 9.61389 19.0089 9.69386 19.1726C9.77386 19.3363 9.90641 19.4685 10.0704 19.5481C10.2343 19.6277 10.4202 19.65 10.5983 19.6116C10.7243 19.5831 11.8503 19.3067 12.6146 18.0669C12.7223 17.8921 12.8138 17.7193 12.889 17.5547C13.0048 17.764 13.1085 18.0079 13.1857 18.2884C13.5983 19.7966 13.4601 21.0161 12.7772 21.9104C11.889 23.075 10.263 23.4876 9.13898 23.4876C9.07801 23.4876 9.01906 23.4856 8.96215 23.4835C8.21419 23.453 5.92966 23.1278 5.26706 22.0689C4.45812 20.7823 4.36666 19.2417 5.01096 17.8413C5.36055 17.0832 6.03331 16.3576 6.68372 15.6563C7.19794 15.1015 7.68371 14.5791 8.03736 14.0222C8.87476 12.7051 9.24467 11.2478 9.40321 10.0934ZM8.68777 8.03038C8.68777 8.03038 8.9276 11.1096 7.35038 13.5873C6.59022 14.7824 4.96015 16.01 4.27113 17.5039C3.58414 18.9917 3.5374 20.8474 4.57601 22.5039C5.55161 24.0587 8.56988 24.2823 8.9276 24.2986C8.99671 24.3006 9.06784 24.3026 9.13898 24.3026C11.4703 24.3026 15.2589 22.7925 13.9702 18.0771C13.5515 16.5445 12.4601 15.888 12.4601 15.888C12.4601 15.888 12.5272 16.6624 11.9215 17.6441C11.3158 18.6218 10.4235 18.8169 10.4235 18.8169C10.4235 18.8169 12.8727 16.7823 11.4764 12.3352C10.706 9.87996 8.68777 8.03038 8.68777 8.03038Z" fill="#424242"/>
<defs>
<linearGradient id="paint0_linear" x1="9.00136" y1="17.1202" x2="9.00136" y2="5.48512" gradientUnits="userSpaceOnUse">
<stop offset="0.228" stop-color="#FB8C00"/>
<stop offset="0.714" stop-color="#EF6C00"/>
</linearGradient>
<linearGradient id="paint1_linear" x1="9.00077" y1="23.9124" x2="9.00077" y2="12.3893" gradientUnits="userSpaceOnUse">
<stop stop-color="#FFB300"/>
<stop offset="0.025" stop-color="#FFB504"/>
<stop offset="0.311" stop-color="#FFCE28"/>
<stop offset="0.577" stop-color="#FFE042"/>
<stop offset="0.815" stop-color="#FFEA52"/>
<stop offset="1" stop-color="#FFEE58"/>
</linearGradient>
</defs>
</svg>
